<svg width="123.554688" height="19.491211" viewBox="0 0 123.555 19.4912" fill="none" xmlns="http://www.w3.org/2000/svg" xmlns:xlink="http://www.w3.org/1999/xlink">
	<desc>
			Created with Pixso.
	</desc>
	<defs/>
	<path id="Vector" d="M14.22 19.16C14.5 19.29 14.87 19.28 15.12 19.08L15.13 19.09C15.89 18.49 17.28 17.41 18.06 16.84C18.37 16.61 18.32 16.24 18.07 15.93C17.37 15.08 16.63 14.38 16.63 12.79L16.63 7.51C16.63 7.33 16.63 7.15 16.63 6.97C16.65 4.95 16.66 3.1 14.95 1.68C13.48 0.43 11.05 0 9.19 0C5.55 0 1.49 1.2 0.64 5.18C0.55 5.61 0.89 5.83 1.21 5.89L4.92 6.24C5.26 6.23 5.51 5.93 5.58 5.62C5.9 4.25 7.2 3.59 8.65 3.59C9.44 3.59 10.33 3.85 10.8 4.47C11.28 5.1 11.27 5.93 11.26 6.67C11.26 6.76 11.26 6.84 11.26 6.93L11.26 7.36C9.05 7.59 6.15 7.73 4.07 8.54C1.68 9.46 0 11.33 0 14.08C0 17.6 2.5 19.36 5.72 19.36C8.44 19.36 9.92 18.79 12.02 16.9C12.72 17.79 12.95 18.22 14.22 19.16ZM65.25 19.08C65 19.28 64.63 19.29 64.35 19.16C63.08 18.22 62.85 17.79 62.15 16.9C60.05 18.79 58.57 19.36 55.85 19.36C52.63 19.36 50.13 17.6 50.13 14.08C50.13 11.33 51.8 9.46 54.2 8.54C56.28 7.73 59.18 7.59 61.39 7.36L61.39 6.93C61.39 6.84 61.39 6.76 61.4 6.68C61.4 5.93 61.41 5.1 60.92 4.47C60.46 3.85 59.57 3.59 58.78 3.59C57.32 3.59 56.03 4.25 55.71 5.62C55.64 5.93 55.39 6.23 55.04 6.24L51.34 5.89C51.02 5.83 50.67 5.61 50.77 5.18C51.62 1.2 55.68 0 59.32 0C61.18 0 63.61 0.43 65.08 1.68C66.79 3.1 66.78 4.95 66.76 6.97C66.76 7.15 66.76 7.33 66.76 7.51L66.76 12.79C66.76 14.38 67.5 15.08 68.2 15.93C68.44 16.24 68.5 16.61 68.19 16.84C67.41 17.41 66.02 18.49 65.25 19.09L65.25 19.08ZM21.74 19.12L25.56 19.12C25.97 19.12 26.3 18.84 26.3 18.49L26.3 9.28C26.3 9.2 26.3 9.13 26.3 9.06C26.3 7.07 26.29 4.48 28.94 4.48C31.38 4.48 31.34 6.78 31.3 8.66C31.3 8.87 31.3 9.08 31.3 9.28L31.3 18.49C31.3 18.83 31.6 19.1 31.99 19.12L35.81 19.12C36.22 19.12 36.55 18.84 36.55 18.49L36.55 9.28C36.55 9.2 36.55 9.12 36.55 9.04C36.54 8.06 36.54 6.75 36.9 5.94C37.29 5.07 38.26 4.52 39.19 4.52C40.29 4.52 41.15 4.85 41.43 6.02C41.58 6.58 41.56 7.87 41.55 8.74C41.55 8.95 41.54 9.13 41.54 9.28L41.54 18.49C41.54 18.83 41.85 19.1 42.23 19.12L46.05 19.12C46.46 19.12 46.79 18.84 46.79 18.49L46.79 7.52C46.79 7.25 46.8 6.98 46.8 6.7C46.83 5.06 46.86 3.32 45.83 2.06C44.76 0.75 43 0.16 41.4 0.16C39.15 0.16 37.05 1.19 36.12 3.38C35.05 1.19 33.55 0.16 31.16 0.16C28.8 0.16 27.05 1.19 26.12 3.38L26.05 3.38L26.05 1.11C26.03 0.8 25.73 0.54 25.36 0.53L21.79 0.53C21.38 0.53 21.06 0.81 21.06 1.15L21.06 18.55C21.08 18.86 21.37 19.1 21.74 19.12ZM96.24 0.16C101.91 0.16 104.99 4.48 104.99 9.97C104.99 15.28 101.59 19.49 96.24 19.49C90.67 19.49 87.63 15.17 87.63 9.79C87.63 4.37 90.71 0.16 96.24 0.16ZM108.53 19.12L112.34 19.12C112.75 19.12 113.09 18.84 113.09 18.49L113.09 9.13C113.09 7.96 113.16 6.9 113.7 5.83C114.12 5 114.98 4.44 115.91 4.44C118.35 4.44 118.32 6.81 118.3 8.67C118.3 8.83 118.3 8.98 118.3 9.13L118.3 18.58C118.34 18.87 118.63 19.1 118.98 19.12L122.81 19.12C123.19 19.12 123.51 18.88 123.55 18.58L123.55 7.63C123.55 5.94 123.55 3.6 122.55 2.21C121.47 0.71 119.8 0.16 118.09 0.16C115.45 0.16 113.94 1.3 112.87 3.68L112.8 3.68L112.8 1.02C112.73 0.74 112.45 0.54 112.12 0.53L108.58 0.53C108.19 0.53 107.87 0.78 107.84 1.1L107.85 18.49C107.85 18.83 108.15 19.1 108.53 19.12ZM71.41 3.6L71.41 1.11C71.41 0.73 71.74 0.48 72.12 0.48L84.69 0.48C85.09 0.48 85.42 0.74 85.42 1.11L85.42 3.24C85.41 3.6 85.07 4.07 84.47 4.8L77.96 13.05C80.38 12.99 82.93 13.31 85.13 14.41C85.62 14.66 85.76 15.02 85.79 15.38L85.79 18.03C85.79 18.39 85.34 18.82 84.87 18.6C81 16.8 75.87 16.61 71.59 18.62C71.16 18.83 70.7 18.41 70.7 18.05L70.7 15.52C70.7 15.12 70.7 14.43 71.16 13.81L78.71 4.22L72.14 4.22C71.74 4.22 71.41 3.97 71.41 3.6ZM96.27 3.71C93.45 3.71 93.28 7.12 93.28 9.24L93.28 9.32C93.28 11.47 93.27 15.9 96.24 15.9C99.2 15.9 99.34 12.24 99.34 10.01C99.34 8.54 99.27 6.79 98.77 5.4C98.34 4.18 97.49 3.71 96.27 3.71ZM11.26 11C11.26 10.94 11.26 10.88 11.26 10.82L11.26 10.08C8.5 10.08 5.58 10.61 5.58 13.49C5.58 14.96 6.43 15.95 7.9 15.95C8.98 15.95 9.94 15.36 10.55 14.41C11.27 13.29 11.26 12.24 11.26 11ZM61.39 10.82C61.39 10.88 61.39 10.94 61.39 11C61.4 12.24 61.4 13.29 60.68 14.41C60.07 15.36 59.1 15.95 58.03 15.95C56.56 15.95 55.7 14.96 55.7 13.49C55.7 10.61 58.62 10.08 61.39 10.08L61.39 10.82Z" fill="#000000" fill-opacity="1.000000" fill-rule="evenodd"/>
</svg>
