<svg width="123.000000" height="68.000000" viewBox="0 0 123 68" fill="none" xmlns="http://www.w3.org/2000/svg" xmlns:xlink="http://www.w3.org/1999/xlink">
	<desc>
			Created with Pixso.
	</desc>
	<defs/>
	<path id="Label" d="M45.61 41L37.09 41L37.09 26.45L38.85 26.45L38.85 39.43L45.61 39.43L45.61 41ZM61.23 41L59.62 41L59.62 26.45L61.29 26.45L61.29 31.82L61.43 31.82C61.81 31.25 62.46 29.95 64.59 29.95C67.34 29.95 69.25 32.13 69.25 35.57C69.25 39.04 67.34 41.22 64.62 41.22C62.51 41.22 61.81 39.92 61.43 39.32L61.23 39.32L61.23 41ZM83.45 26.45L85.13 26.45L85.13 41L83.45 41L83.45 26.45ZM54.56 39.52C54.22 40.23 53.22 41.25 51.32 41.25C49.25 41.25 47.6 40.03 47.6 37.9C47.6 35.4 49.81 34.95 51.83 34.69C53.82 34.43 54.64 34.51 54.64 33.7L54.64 33.64C54.64 32.24 53.89 31.42 52.34 31.42C50.75 31.42 49.87 32.27 49.5 33.07L47.91 32.5C48.76 30.51 50.64 29.95 52.29 29.95C53.68 29.95 56.32 30.34 56.32 33.81L56.32 41L54.64 41L54.64 39.52L54.56 39.52ZM80.72 38.47C80.21 40.12 78.6 41.22 76.38 41.22C73.22 41.22 71.29 38.98 71.29 35.62C71.29 32.27 73.25 29.95 76.21 29.95C78.48 29.95 80.9 31.34 80.9 35.4L80.9 36.11L72.98 36.11C73.05 38.45 74.41 39.72 76.38 39.72C77.69 39.72 78.68 39.15 79.1 38.01L80.72 38.47ZM64.39 31.45C62.34 31.45 61.26 33.1 61.26 35.54C61.26 38.01 62.37 39.72 64.39 39.72C66.49 39.72 67.57 37.87 67.57 35.54C67.57 33.24 66.52 31.45 64.39 31.45ZM76.21 31.45C74.29 31.45 73.09 32.96 72.98 34.66L79.19 34.66C79.19 32.81 78.02 31.45 76.21 31.45ZM49.28 37.98C49.28 39.15 50.24 39.75 51.58 39.75C53.56 39.75 54.64 38.41 54.64 37.04L54.64 35.51C54.36 35.85 52.46 36.05 51.75 36.14C50.44 36.31 49.28 36.7 49.28 37.98Z" fill="#000000" fill-opacity="1.000000" fill-rule="evenodd"/>
	<rect id="Property 1=Button secondary" rx="13.500000" width="122.000000" height="67.000000" transform="translate(0.500000 0.500000)" stroke="#191A23" stroke-opacity="1.000000" stroke-width="1.000000"/>
</svg>
