<svg width="164.000000" height="41.000000" viewBox="0 0 164 41" fill="none" xmlns="http://www.w3.org/2000/svg" xmlns:xlink="http://www.w3.org/1999/xlink">
	<desc>
			Created with Pixso.
	</desc>
	<defs/>
	<circle id="Ellipse 1" cx="20.500000" cy="20.500000" r="20.500000" fill="#191A23" fill-opacity="1.000000"/>
	<path id="Arrow 1" d="M12.75 27.27L12.75 27.29C12.02 27.71 11.12 27.47 10.7 26.75C10.28 26.02 10.52 25.12 11.25 24.7L11.27 24.7L12.75 27.27ZM27.48 17.06L17.34 14.34C16.52 14.12 16.06 13.31 16.28 12.5C16.49 11.69 17.3 11.22 18.11 11.44L29.7 14.55C30.51 14.76 30.98 15.57 30.76 16.38L27.66 27.97C27.44 28.79 26.63 29.25 25.82 29.04C25.01 28.82 24.54 28.01 24.76 27.2L27.48 17.06Z" fill="#191A23" fill-opacity="1.000000" fill-rule="nonzero"/>
	<path id="Arrow 1" d="M25.43 16.51L17.34 14.34C16.52 14.12 16.06 13.31 16.28 12.5C16.49 11.69 17.3 11.22 18.11 11.44L29.7 14.55C30.51 14.76 30.98 15.57 30.76 16.38L27.66 27.97C27.44 28.79 26.63 29.25 25.82 29.04C25.01 28.82 24.54 28.01 24.76 27.2L26.93 19.1L12.75 27.29C12.02 27.71 11.12 27.47 10.7 26.75C10.28 26.02 10.52 25.12 11.25 24.7L25.43 16.51Z" fill="#B9FF66" fill-opacity="1.000000" fill-rule="evenodd"/>
	<path id="Label" d="M66.28 27.5L57.76 27.5L57.76 12.95L59.52 12.95L59.52 25.93L66.28 25.93L66.28 27.5ZM93.38 27.5L91.7 27.5L91.7 16.59L93.33 16.59L93.33 18.23L93.44 18.23C93.84 17.15 94.97 16.42 96.28 16.42C96.53 16.42 96.97 16.43 97.16 16.45L97.16 18.15C97.05 18.12 96.58 18.04 96.14 18.04C94.55 18.04 93.38 19.12 93.38 20.59L93.38 27.5ZM147.47 27.5L145.8 27.5L145.8 16.59L147.42 16.59L147.42 18.23L147.53 18.23C147.93 17.15 149.06 16.42 150.37 16.42C150.62 16.42 151.06 16.43 151.25 16.45L151.25 18.15C151.14 18.12 150.67 18.04 150.23 18.04C148.64 18.04 147.47 19.12 147.47 20.59L147.47 27.5ZM77.7 24.97C77.19 26.62 75.57 27.72 73.35 27.72C70.2 27.72 68.27 25.48 68.27 22.12C68.27 18.77 70.23 16.45 73.18 16.45C75.45 16.45 77.87 17.84 77.87 21.9L77.87 22.61L69.95 22.61C70.03 24.95 71.39 26.22 73.35 26.22C74.67 26.22 75.65 25.65 76.08 24.51L77.7 24.97ZM86.88 26.02C86.53 26.73 85.54 27.75 83.64 27.75C81.56 27.75 79.91 26.53 79.91 24.4C79.91 21.9 82.13 21.45 84.15 21.19C86.14 20.93 86.96 21.01 86.96 20.2L86.96 20.14C86.96 18.74 86.2 17.92 84.66 17.92C83.06 17.92 82.19 18.77 81.82 19.57L80.23 19C81.08 17.01 82.96 16.45 84.6 16.45C86 16.45 88.64 16.84 88.64 20.31L88.64 27.5L86.96 27.5L86.96 26.02L86.88 26.02ZM103.61 17.95C102 17.95 100.82 19.03 100.82 20.93L100.82 27.5L99.15 27.5L99.15 16.59L100.77 16.59L100.77 18.29L100.91 18.29C101.42 17.18 102.44 16.45 104.09 16.45C106.3 16.45 107.79 17.78 107.79 20.56L107.79 27.5L106.11 27.5L106.11 20.68C106.11 18.96 105.16 17.95 103.61 17.95ZM118.15 27.5L116.48 27.5L116.48 16.59L118.1 16.59L118.1 18.29L118.24 18.29C118.69 17.12 119.74 16.45 121.17 16.45C122.6 16.45 123.55 17.12 124.09 18.29L124.21 18.29C124.77 17.16 125.91 16.45 127.47 16.45C129.42 16.45 130.8 17.63 130.8 20.2L130.8 27.5L129.12 27.5L129.12 20.2C129.12 18.58 128.1 17.95 126.9 17.95C125.37 17.95 124.49 18.98 124.49 20.39L124.49 27.5L122.79 27.5L122.79 20.02C122.79 18.78 121.9 17.95 120.63 17.95C119.32 17.95 118.15 19.08 118.15 20.68L118.15 27.5ZM143.24 22.1C143.24 25.48 141.25 27.72 138.3 27.72C135.34 27.72 133.35 25.48 133.35 22.1C133.35 18.69 135.34 16.45 138.3 16.45C141.25 16.45 143.24 18.69 143.24 22.1ZM161.82 24.97C161.31 26.62 159.69 27.72 157.47 27.72C154.32 27.72 152.39 25.48 152.39 22.12C152.39 18.77 154.35 16.45 157.3 16.45C159.57 16.45 161.99 17.84 161.99 21.9L161.99 22.61L154.07 22.61C154.15 24.95 155.5 26.22 157.47 26.22C158.79 26.22 159.77 25.65 160.2 24.51L161.82 24.97ZM73.18 17.95C71.26 17.95 70.06 19.46 69.95 21.16L76.17 21.16C76.17 19.31 75 17.95 73.18 17.95ZM135.03 22.1C135.03 24.29 136.05 26.22 138.3 26.22C140.54 26.22 141.56 24.29 141.56 22.1C141.56 19.91 140.54 17.95 138.3 17.95C136.05 17.95 135.03 19.91 135.03 22.1ZM157.3 17.95C155.38 17.95 154.18 19.46 154.07 21.16L160.28 21.16C160.28 19.31 159.12 17.95 157.3 17.95ZM81.59 24.48C81.59 25.65 82.56 26.25 83.89 26.25C85.88 26.25 86.96 24.91 86.96 23.54L86.96 22.01C86.68 22.35 84.77 22.55 84.06 22.64C82.76 22.81 81.59 23.2 81.59 24.48Z" fill="#000000" fill-opacity="1.000000" fill-rule="evenodd"/>
</svg>
