<svg width="161.693359" height="30.732422" viewBox="0 0 161.693 30.7324" fill="none" xmlns="http://www.w3.org/2000/svg" xmlns:xlink="http://www.w3.org/1999/xlink">
	<desc>
			Created with Pixso.
	</desc>
	<defs/>
	<path id="Label" d="M93.58 2.53C93.58 3.93 92.36 5.06 90.89 5.06C89.42 5.06 88.21 3.93 88.21 2.53C88.21 1.15 89.42 0 90.89 0C92.36 0 93.58 1.15 93.58 2.53ZM21.25 8.8L17.02 8.8C16.7 6.12 14.33 4.56 10.99 4.56C7.42 4.56 5.15 6.38 5.15 8.85C5.14 11.65 8.17 12.71 10.44 13.29L13.28 14.03C16.98 14.94 21.65 16.97 21.65 22.21C21.65 27.13 17.71 30.73 10.88 30.73C4.36 30.73 0.29 27.48 0 22.21L4.4 22.21C4.66 25.38 7.48 26.88 10.85 26.88C14.58 26.88 17.3 25 17.3 22.16C17.3 19.58 14.9 18.56 11.79 17.74L8.35 16.8C3.68 15.53 0.78 13.16 0.78 9.12C0.78 4.1 5.26 0.76 11.09 0.76C17.01 0.76 21.12 4.15 21.25 8.8ZM54.29 30.25L50.04 30.25L50.04 8.43L54.15 8.43L54.15 11.9L54.37 11.9C55.17 9.56 57.35 8.1 59.91 8.1C60.46 8.1 61.29 8.15 61.72 8.21L61.72 12.27C61.38 12.16 60.38 12.01 59.5 12.01C56.49 12.01 54.29 14.07 54.29 16.93L54.29 30.25ZM45.04 24.79C44.07 28.34 40.71 30.69 35.95 30.69C29.51 30.69 25.57 26.25 25.57 19.48C25.57 12.78 29.57 8.15 35.66 8.15C40.6 8.15 45.31 11.23 45.31 19.12L45.31 20.62L29.8 20.62C29.91 24.82 32.35 27.18 36 27.18C38.41 27.18 40.26 26.13 41.03 24.07L45.04 24.79ZM116.86 23.34C116.39 27.59 113.05 30.69 107.89 30.69C101.57 30.69 97.73 26.02 97.73 19.44C97.73 12.78 101.7 8.15 107.85 8.15C112.82 8.15 116.41 11.07 116.86 15.47L112.73 15.47C112.27 13.43 110.63 11.72 107.92 11.72C104.38 11.72 102.01 14.66 102.01 19.34C102.01 24.1 104.33 27.09 107.92 27.09C110.35 27.09 112.19 25.71 112.73 23.34L116.86 23.34ZM139.91 24.79C138.95 28.34 135.59 30.69 130.82 30.69C124.39 30.69 120.44 26.25 120.44 19.48C120.44 12.78 124.44 8.15 130.53 8.15C135.47 8.15 140.19 11.23 140.19 19.12L140.19 20.62L124.67 20.62C124.79 24.82 127.23 27.18 130.87 27.18C133.28 27.18 135.13 26.13 135.9 24.07L139.91 24.79ZM153.01 8.15C157.72 8.15 160.38 10.37 161.27 13.75L157.41 14.44C156.91 12.97 155.69 11.51 153.06 11.51C150.64 11.51 148.82 12.71 148.84 14.38C148.82 15.86 149.86 16.66 152.25 17.24L155.72 18.03C159.73 18.96 161.69 20.86 161.69 23.94C161.69 27.9 158.04 30.69 152.77 30.69C147.87 30.69 144.66 28.52 143.94 24.65L148.06 24.03C148.56 26.18 150.19 27.27 152.74 27.27C155.53 27.27 157.33 25.94 157.33 24.25C157.33 22.9 156.35 21.96 154.25 21.49L150.56 20.68C146.46 19.77 144.59 17.71 144.59 14.61C144.59 10.75 148.08 8.15 153.01 8.15ZM80.2 8.43L84.76 8.43L76.84 30.25L72.3 30.25L64.37 8.43L68.93 8.43L74.46 25.22L74.68 25.22L80.2 8.43ZM92.99 30.25L88.75 30.25L88.75 8.43L92.99 8.43L92.99 30.25ZM35.68 11.66C32.23 11.66 29.98 14.34 29.82 17.44L41.15 17.44C41.13 14.1 38.98 11.66 35.68 11.66ZM130.56 11.66C127.1 11.66 124.85 14.34 124.69 17.44L136.03 17.44C136.01 14.1 133.85 11.66 130.56 11.66Z" fill="#000000" fill-opacity="1.000000" fill-rule="evenodd"/>
</svg>
